<?xml version="1.0" encoding="UTF-8"?>
<svg version="1.1" xmlns="http://www.w3.org/2000/svg" width="32" height="32">
<path d="M0 0 C10.56 0 21.12 0 32 0 C32 10.56 32 21.12 32 32 C21.44 32 10.88 32 0 32 C0 21.44 0 10.88 0 0 Z " fill="#060606" transform="translate(0,0)"/>
<path d="M0 0 C1 1 1 1 1.0625 3.5625 C1.041875 4.366875 1.02125 5.17125 1 6 C0.34 5.67 -0.32 5.34 -1 5 C-1 4.01 -1 3.02 -1 2 C-2.65 2 -4.3 2 -6 2 C-6 3.65 -6 5.3 -6 7 C-5.05125 7.28875 -4.1025 7.5775 -3.125 7.875 C0 9 0 9 2 11 C1.8125 13.5 1.8125 13.5 1 16 C-2.4352048 18.29013653 -3.985331 18.17842973 -8 18 C-8.33 16.35 -8.66 14.7 -9 13 C-8.34 13 -7.68 13 -7 13 C-6.67 13.66 -6.34 14.32 -6 15 C-4.35 15 -2.7 15 -1 15 C-0.67 14.01 -0.34 13.02 0 12 C-0.928125 11.731875 -1.85625 11.46375 -2.8125 11.1875 C-7.4516129 9.45920304 -7.4516129 9.45920304 -9 7 C-8.875 4.4375 -8.875 4.4375 -8 2 C-4.77786243 -0.14809171 -3.72224599 -0.29386153 0 0 Z " fill="#EAEAEA" transform="translate(28,7)"/>
<path d="M0 0 C0 1.65 0 3.3 0 5 C-0.66 4.34 -1.32 3.68 -2 3 C-5.04182893 2.74994614 -5.04182893 2.74994614 -8 3 C-9.58894072 4.58894072 -9.16998411 6.24801424 -9.1875 8.4375 C-9.20167969 9.24058594 -9.21585938 10.04367188 -9.23046875 10.87109375 C-9.20162356 13.21630633 -9.20162356 13.21630633 -7 15 C-4.31160615 15.26991906 -1.70858064 15.08737357 1 15 C-1.35757832 17.17622614 -2.79843809 17.96640635 -6 18.5 C-9 18 -9 18 -11.375 15.9375 C-13.41549207 12.24891818 -13.59455887 10.16191207 -13 6 C-9.18395402 0.14872949 -6.78763028 -0.12569686 0 0 Z " fill="#DDDDDD" transform="translate(15,7)"/>
<path d="M0 0 C1 1 1 1 1.0625 3.5625 C1.041875 4.366875 1.02125 5.17125 1 6 C0.34 5.67 -0.32 5.34 -1 5 C-1 4.01 -1 3.02 -1 2 C-2.65 2 -4.3 2 -6 2 C-6.33 3.32 -6.66 4.64 -7 6 C-7.66 5.67 -8.32 5.34 -9 5 C-6.84599545 0.23041849 -5.18699587 -0.26599979 0 0 Z " fill="#D9D9D9" transform="translate(28,7)"/>
<path d="M0 0 C2.31 0 4.62 0 7 0 C7 1.65 7 3.3 7 5 C6.34 4.34 5.68 3.68 5 3 C3.01178687 2.60235737 1.01055661 2.26224651 -1 2 C-0.67 1.34 -0.34 0.68 0 0 Z " fill="#EDEDED" transform="translate(8,7)"/>
</svg>
